# xmcd
#
# Track frame offsets:
#       150
#       10102
#       23540
#       34227
#       47555
#       58490
#       70455
#       80170
#       91067
#       102072
#       112237
#       125522
#
# Disc length: 1910 seconds
#
# Revision: 0
# Processed by: cddbd v1.5.1PL2 Copyright (c) Steve Scherf et al.
# Submitted via: CD-DA_X-Tractor v0.24
#
DISCID=9f07740c
DTITLE=Gary US Bonds - The Star
DYEAR=1994
DGENRE=
TTITLE0=The Star
TTITLE1=Trying To Get To My Baby
TTITLE2=High Blood Pressure
TTITLE3=You Need a Personal Manager
TTITLE4=One Broken Heart
TTITLE5=I Can't Use You in My Business
TTITLE6=Funky Lies
TTITLE7=I'm Glad You're Back
TTITLE8=Don't Trust a Woman
TTITLE9=US Stomp
TTITLE10=Bad Things Happen When You Leave Me
TTITLE11=They're Dancing To My Song
EXTD=
EXTT0=
EXTT1=
EXTT2=
EXTT3=
EXTT4=
EXTT5=
EXTT6=
EXTT7=
EXTT8=
EXTT9=
EXTT10=
EXTT11=
PLAYORDER=
